<?xml version="1.0" encoding="UTF-8"?>
<svg width="310px" height="235px" viewBox="0 0 310 235" version="1.1" xmlns="http://www.w3.org/2000/svg" xmlns:xlink="http://www.w3.org/1999/xlink">
    <!-- Generator: Sketch 53.1 (72631) - https://sketchapp.com -->
    <title>nuxt</title>
    <desc>Created with Sketch.</desc>
    <g id="Page-1" stroke="none" stroke-width="1" fill="none" fill-rule="evenodd">
        <g id="nuxt-typescript" transform="translate(-245.000000, -39.000000)">
            <g id="nuxt" transform="translate(245.000000, 39.000000)">
                <path d="M95.0864154,226.613084 C94.8545634,226.19857 94.6480761,225.770069 94.4681165,225.329996 C93.2199199,222.410589 92.8356,219.187962 93.3616868,216.052283 L19.5237782,216.052283 L129.255567,20.8255056 L175.426025,104.091606 L189.988833,93.0848965 L144.322535,10.2318045 C143.4439,8.61971953 138.139546,2.84217094e-14 128.99523,2.84217094e-14 C124.86239,2.84217094e-14 118.939737,1.80948311 114.123514,10.3634032 L2.95987539,207.958959 C2.01615598,209.669743 -2.57227289,218.651359 1.98361393,226.613084 C4.06630505,230.232051 8.49202368,234.54191 18.2546383,234.54191 L111.35744,234.54191 C101.659909,234.54191 97.1691065,230.29785 95.0864154,226.613084 Z" id="Path" fill="#007ACC"></path>
                <path d="M306.107338,208.330157 L216.740594,47.9129267 C215.817318,46.2260316 210.659707,37.6942356 201.681645,37.6942356 C197.638333,37.6942356 191.84398,39.4460112 187.132089,47.8804864 L175.398494,67.01788 L175.398494,103.984932 L201.777156,58.2289386 L290.188787,216.310468 L256.568808,216.310468 C256.999011,218.92378 256.757706,221.606073 255.868391,224.096137 C255.681097,224.64589 255.446722,225.177797 255.167975,225.685711 L254.881441,226.269637 C250.360573,234.120187 240.586583,234.54191 238.676357,234.54191 L291.271248,234.54191 C293.213311,234.54191 302.955465,234.120187 307.476333,226.269637 C309.48207,222.701205 310.91474,216.699751 306.107338,208.330157 Z" id="Path" fill="#085D97"></path>
                <path d="M257.227019,226.194874 L257.522716,225.605671 C257.810378,225.093166 258.052248,224.556452 258.245532,224.001731 C259.163286,221.489162 259.412308,218.782627 258.968347,216.145696 C258.457004,213.301753 257.432918,210.573583 255.945665,208.093261 L186.06257,85.6045894 L175.575221,67.0119744 L175.384617,67.0119744 L164.772375,85.6045894 L94.9221352,208.093261 C93.5659111,210.603047 92.6544993,213.327149 92.2280055,216.145696 C91.6658387,219.256079 92.0195844,222.462099 93.246518,225.376537 C93.4282096,225.814387 93.6366841,226.240722 93.8707675,226.653142 C95.9735029,230.253825 100.441815,234.54191 110.298387,234.54191 L240.405136,234.54191 C242.475017,234.54191 252.561575,234.116375 257.227019,226.194874 Z M175.384617,104.197204 L239.255203,216.145696 L111.546886,216.145696 L175.384617,104.197204 Z" id="Shape" fill="#2F495E" fill-rule="nonzero"></path>
            </g>
        </g>
    </g>
</svg>